<svg width="92" height="35" viewBox="0 0 92 35" fill="none" xmlns="http://www.w3.org/2000/svg">
<path d="M0.887784 3.98757V0.818181H15.8203V3.98757H10.2539V19H6.45419V3.98757H0.887784ZM22.4454 19.2663C21.0427 19.2663 19.8353 18.9822 18.8232 18.4141C17.8171 17.84 17.0418 17.0291 16.4972 15.9815C15.9527 14.928 15.6805 13.6822 15.6805 12.244C15.6805 10.8413 15.9527 9.6102 16.4972 8.55078C17.0418 7.49136 17.8082 6.66572 18.7966 6.07386C19.7909 5.48201 20.9569 5.18608 22.2945 5.18608C23.1941 5.18608 24.0316 5.33108 24.8069 5.62109C25.5882 5.90518 26.2688 6.33428 26.8488 6.90838C27.4347 7.48248 27.8905 8.20455 28.216 9.07457C28.5415 9.93868 28.7043 10.9508 28.7043 12.1108V13.1495H17.1897V10.8058H25.1443C25.1443 10.2612 25.0259 9.77888 24.7892 9.35866C24.5524 8.93845 24.2239 8.60997 23.8037 8.37322C23.3894 8.13056 22.907 8.00923 22.3566 8.00923C21.7825 8.00923 21.2735 8.1424 20.8296 8.40874C20.3917 8.66915 20.0484 9.02131 19.7998 9.4652C19.5512 9.90317 19.424 10.3915 19.4181 10.93V13.1584C19.4181 13.8331 19.5423 14.4161 19.7909 14.9073C20.0454 15.3986 20.4035 15.7773 20.8651 16.0437C21.3268 16.31 21.8743 16.4432 22.5075 16.4432C22.9278 16.4432 23.3125 16.384 23.6617 16.2656C24.0109 16.1473 24.3097 15.9697 24.5583 15.733C24.8069 15.4962 24.9963 15.2062 25.1265 14.8629L28.6244 15.0938C28.4468 15.9342 28.0828 16.6681 27.5324 17.2955C26.9879 17.9169 26.2836 18.4022 25.4195 18.7514C24.5613 19.0947 23.5699 19.2663 22.4454 19.2663ZM34.9543 0.818181V19H31.1723V0.818181H34.9543ZM44.1451 19.2663C42.7483 19.2663 41.5468 18.9704 40.5407 18.3786C39.5404 17.7808 38.771 16.9522 38.2324 15.8928C37.6998 14.8333 37.4334 13.6141 37.4334 12.2351C37.4334 10.8383 37.7027 9.61316 38.2413 8.55966C38.7858 7.50024 39.5582 6.6746 40.5584 6.08274C41.5587 5.48497 42.7483 5.18608 44.1273 5.18608C45.3169 5.18608 46.3586 5.40211 47.2523 5.83416C48.146 6.26622 48.8533 6.87287 49.3741 7.65412C49.8949 8.43537 50.182 9.35275 50.2353 10.4062H46.6664C46.5658 9.72562 46.2994 9.17815 45.8674 8.76385C45.4412 8.34363 44.8819 8.13352 44.1895 8.13352C43.6035 8.13352 43.0916 8.29332 42.6536 8.61293C42.2215 8.92661 41.8842 9.3853 41.6415 9.98899C41.3989 10.5927 41.2775 11.3236 41.2775 12.1818C41.2775 13.0518 41.3959 13.7917 41.6326 14.4013C41.8753 15.0109 42.2156 15.4755 42.6536 15.7951C43.0916 16.1147 43.6035 16.2745 44.1895 16.2745C44.6215 16.2745 45.0092 16.1857 45.3525 16.0082C45.7016 15.8306 45.9887 15.5732 46.2136 15.2358C46.4444 14.8925 46.5953 14.4812 46.6664 14.0018H50.2353C50.1761 15.0434 49.892 15.9608 49.383 16.7539C48.8799 17.5411 48.1845 18.1566 47.2967 18.6005C46.4089 19.0444 45.3584 19.2663 44.1451 19.2663ZM58.8179 19.2663C57.4389 19.2663 56.2463 18.9734 55.2401 18.3874C54.2399 17.7956 53.4675 16.9729 52.923 15.9194C52.3785 14.86 52.1063 13.6319 52.1063 12.2351C52.1063 10.8265 52.3785 9.59541 52.923 8.5419C53.4675 7.48248 54.2399 6.6598 55.2401 6.07386C56.2463 5.48201 57.4389 5.18608 58.8179 5.18608C60.1969 5.18608 61.3866 5.48201 62.3868 6.07386C63.393 6.6598 64.1683 7.48248 64.7128 8.5419C65.2573 9.59541 65.5296 10.8265 65.5296 12.2351C65.5296 13.6319 65.2573 14.86 64.7128 15.9194C64.1683 16.9729 63.393 17.7956 62.3868 18.3874C61.3866 18.9734 60.1969 19.2663 58.8179 19.2663ZM58.8357 16.3366C59.463 16.3366 59.9868 16.1591 60.407 15.804C60.8273 15.4429 61.1439 14.9517 61.357 14.3303C61.576 13.7088 61.6855 13.0015 61.6855 12.2085C61.6855 11.4154 61.576 10.7081 61.357 10.0866C61.1439 9.4652 60.8273 8.97396 60.407 8.61293C59.9868 8.25189 59.463 8.07138 58.8357 8.07138C58.2024 8.07138 57.6697 8.25189 57.2377 8.61293C56.8115 8.97396 56.489 9.4652 56.27 10.0866C56.0569 10.7081 55.9504 11.4154 55.9504 12.2085C55.9504 13.0015 56.0569 13.7088 56.27 14.3303C56.489 14.9517 56.8115 15.4429 57.2377 15.804C57.6697 16.1591 58.2024 16.3366 58.8357 16.3366ZM67.9887 19V5.36364H71.5931V7.76953H71.7529C72.037 6.97053 72.5105 6.3402 73.1734 5.87855C73.8363 5.4169 74.6294 5.18608 75.5526 5.18608C76.4878 5.18608 77.2838 5.41986 77.9408 5.88743C78.5977 6.34908 79.0357 6.97644 79.2547 7.76953H79.3968C79.6749 6.98828 80.178 6.36387 80.906 5.89631C81.6399 5.42282 82.507 5.18608 83.5072 5.18608C84.7797 5.18608 85.8125 5.5915 86.6056 6.40234C87.4046 7.20727 87.8041 8.34955 87.8041 9.82919V19H84.031V10.5749C84.031 9.81735 83.8298 9.24917 83.4273 8.87038C83.0248 8.4916 82.5218 8.3022 81.9181 8.3022C81.2315 8.3022 80.6959 8.52119 80.3112 8.95916C79.9265 9.39122 79.7341 9.96236 79.7341 10.6726V19H76.0676V10.495C76.0676 9.82623 75.8752 9.29356 75.4905 8.89702C75.1117 8.50047 74.6116 8.3022 73.9901 8.3022C73.5699 8.3022 73.1911 8.40874 72.8538 8.6218C72.5223 8.82895 72.259 9.12192 72.0637 9.50071C71.8683 9.87358 71.7707 10.3116 71.7707 10.8146V19H67.9887Z" fill="#033D00"/>
<path d="M33.1164 22.3636V34H31.7527L25.4118 24.8636H25.2982V34H23.8891V22.3636H25.2527L31.6164 31.5227H31.73V22.3636H33.1164ZM38.4651 22.3636V34H37.056V22.3636H38.4651ZM50.3649 26C50.2399 25.6174 50.0751 25.2746 49.8706 24.9716C49.6698 24.6648 49.4293 24.4034 49.149 24.1875C48.8725 23.9716 48.5581 23.8068 48.2058 23.6932C47.8535 23.5795 47.4672 23.5227 47.0467 23.5227C46.3573 23.5227 45.7304 23.7008 45.166 24.0568C44.6016 24.4129 44.1528 24.9375 43.8194 25.6307C43.4861 26.3239 43.3194 27.1742 43.3194 28.1818C43.3194 29.1894 43.488 30.0398 43.8251 30.733C44.1622 31.4261 44.6187 31.9508 45.1944 32.3068C45.7702 32.6629 46.4179 32.8409 47.1376 32.8409C47.8043 32.8409 48.3914 32.6989 48.899 32.4148C49.4103 32.1269 49.8081 31.7216 50.0922 31.1989C50.38 30.6723 50.524 30.053 50.524 29.3409L50.9558 29.4318H47.4558V28.1818H51.8876V29.4318C51.8876 30.3902 51.6831 31.2235 51.274 31.9318C50.8687 32.6402 50.3081 33.1894 49.5922 33.5795C48.88 33.9659 48.0619 34.1591 47.1376 34.1591C46.1073 34.1591 45.202 33.9167 44.4217 33.4318C43.6452 32.947 43.0391 32.2576 42.6035 31.3636C42.1717 30.4697 41.9558 29.4091 41.9558 28.1818C41.9558 27.2614 42.0789 26.4337 42.3251 25.6989C42.5751 24.9602 42.9274 24.3314 43.3819 23.8125C43.8365 23.2936 44.3744 22.8958 44.9956 22.6193C45.6168 22.3428 46.3005 22.2045 47.0467 22.2045C47.6603 22.2045 48.2323 22.2973 48.7626 22.483C49.2967 22.6648 49.7721 22.9242 50.1888 23.2614C50.6092 23.5947 50.9596 23.9943 51.2399 24.4602C51.5202 24.9223 51.7134 25.4356 51.8194 26H50.3649ZM55.421 34V22.3636H62.4437V23.6136H56.8301V27.5455H62.0801V28.7955H56.8301V32.75H62.5346V34H55.421ZM66.1035 34V22.3636H70.0353C70.9444 22.3636 71.6906 22.5189 72.2739 22.8295C72.8573 23.1364 73.2891 23.5587 73.5694 24.0966C73.8497 24.6345 73.9898 25.2462 73.9898 25.9318C73.9898 26.6174 73.8497 27.2254 73.5694 27.7557C73.2891 28.286 72.8591 28.7027 72.2796 29.0057C71.7001 29.3049 70.9595 29.4545 70.058 29.4545H66.8762V28.1818H70.0126C70.6338 28.1818 71.1338 28.0909 71.5126 27.9091C71.8951 27.7273 72.1716 27.4697 72.3421 27.1364C72.5163 26.7992 72.6035 26.3977 72.6035 25.9318C72.6035 25.4659 72.5163 25.0587 72.3421 24.7102C72.1679 24.3617 71.8895 24.0928 71.5069 23.9034C71.1243 23.7102 70.6186 23.6136 69.9898 23.6136H67.5126V34H66.1035ZM71.5807 28.7727L74.4444 34H72.808L69.9898 28.7727H71.5807ZM78.8669 22.3636V34H77.4578V22.3636H78.8669ZM83.2895 34H81.8122L86.0849 22.3636H87.5395L91.8122 34H90.3349L86.8577 24.2045H86.7668L83.2895 34ZM83.8349 29.4545H89.7895V30.7045H83.8349V29.4545Z" fill="#1E1E1E"/>
</svg>
